<?xml version="1.0" encoding="iso-8859-1"?>
<!-- Generator: Adobe Illustrator 19.0.0, SVG Export Plug-In . SVG Version: 6.00 Build 0)  -->
<svg version="1.1" id="Layer_1" xmlns="http://www.w3.org/2000/svg" xmlns:xlink="http://www.w3.org/1999/xlink" x="0px" y="0px"
	 viewBox="0 0 512 512" style="enable-background:new 0 0 512 512;" xml:space="preserve">
<circle style="fill:#32BEA6;" cx="256" cy="256" r="256"/>
<g>
	
		<rect x="219.722" y="284.088" transform="matrix(-0.9339 -0.3575 0.3575 -0.9339 517.9784 695.9141)" style="fill:#FFFFFF;" width="207.181" height="31.984"/>
	
		<rect x="318.105" y="234.36" transform="matrix(-0.9339 -0.3575 0.3575 -0.9339 551.0729 633.5665)" style="fill:#FFFFFF;" width="31.984" height="62.975"/>
	
		<rect x="370.576" y="254.412" transform="matrix(-0.9339 -0.3575 0.3575 -0.9339 645.375 691.1194)" style="fill:#FFFFFF;" width="31.984" height="62.991"/>
	<path style="fill:#FFFFFF;" d="M166.256,319.936c-9.504,0-19.168-1.696-28.56-5.296c-41.232-15.776-61.952-62.144-46.192-103.312
		c15.76-41.184,62.096-61.84,103.36-46.064c41.232,15.776,61.952,62.144,46.192,103.312l0,0
		C228.896,300.384,198.48,319.936,166.256,319.936z M166.272,191.968c-19.328,0-37.584,11.728-44.88,30.8
		c-9.456,24.704,2.992,52.512,27.744,62c24.8,9.488,52.592-2.912,62.032-27.632l0,0c9.456-24.704-2.992-52.512-27.744-62
		C177.792,192.992,171.984,191.968,166.272,191.968z"/>
</g>
<g>
</g>
<g>
</g>
<g>
</g>
<g>
</g>
<g>
</g>
<g>
</g>
<g>
</g>
<g>
</g>
<g>
</g>
<g>
</g>
<g>
</g>
<g>
</g>
<g>
</g>
<g>
</g>
<g>
</g>
</svg>
